<svg shape-rendering="geometricPrecision" viewBox="0 0 9800 4900" xmlns="http://www.w3.org/2000/svg"><g class="text-gray-800" transform="scale(1000) translate(2.6, 2.2)"><path stroke="currentColor" stroke-linecap="round" stroke-linejoin="round" d="M 0,-1 L 0.9510565162951535,-0.30901699437494745 0.5877852522924732,0.8090169943749475 -0.5877852522924732,0.8090169943749475 -0.9510565162951535,-0.30901699437494745 Z" stroke-width="0.025" transform="translate(0,0) rotate(0)"></path><g transform="translate(0,0) rotate(0)"><path stroke="currentColor" stroke-linecap="round" stroke-linejoin="round" d="M 0,-1 L -0.23776412907378838,-0.8272542485937369 0,-0.5772542485937369 0.23776412907378838,-0.8272542485937369 Z" fill="oklch(90.5% 0.182 98.111)" stroke-width="0.025"></path><!----><path stroke="currentColor" stroke-linecap="round" stroke-linejoin="round" d="M 0.23776412907378838,-0.8272542485937369 L 0,-0.5772542485937369 0.23776412907378838,-0.32725424859373686 0.47552825814757677,-0.6545084971874737 Z" fill="oklch(90.5% 0.182 98.111)" stroke-width="0.025"></path><!----><path stroke="currentColor" stroke-linecap="round" stroke-linejoin="round" d="M -0.23776412907378838,-0.8272542485937369 L -0.47552825814757677,-0.6545084971874737 -0.23776412907378838,-0.32725424859373686 0,-0.5772542485937369 Z" fill="oklch(90.5% 0.182 98.111)" stroke-width="0.025"></path><!----><path stroke="currentColor" stroke-linecap="round" stroke-linejoin="round" d="M 0,-0.5772542485937369 L -0.23776412907378838,-0.32725424859373686 0,0 0.23776412907378838,-0.32725424859373686 Z" fill="oklch(90.5% 0.182 98.111)" stroke-width="0.025"></path><!----><path stroke="currentColor" stroke-linecap="round" stroke-linejoin="round" d="M 0.9510565162951535,-0.30901699437494745 L 0.7132923872213651,-0.4817627457812106 0.5490014146841359,-0.1783813728906053 0.8602387002944835,-0.029508497187473726 Z" fill="oklch(90.5% 0.182 98.111)" stroke-width="0.025"></path><!----><path stroke="currentColor" stroke-linecap="round" stroke-linejoin="round" d="M 0.8602387002944835,-0.029508497187473726 L 0.5490014146841359,-0.1783813728906053 0.3847104421469067,0.125 0.7694208842938134,0.25 Z" fill="oklch(90.5% 0.182 98.111)" stroke-width="0.025"></path><!----><path stroke="currentColor" stroke-linecap="round" stroke-linejoin="round" d="M 0.7132923872213651,-0.4817627457812106 L 0.47552825814757677,-0.6545084971874737 0.23776412907378838,-0.32725424859373686 0.5490014146841359,-0.1783813728906053 Z" fill="oklch(90.5% 0.182 98.111)" stroke-width="0.025"></path><!----><path stroke="currentColor" stroke-linecap="round" stroke-linejoin="round" d="M 0.5490014146841359,-0.1783813728906053 L 0.23776412907378838,-0.32725424859373686 0,0 0.3847104421469067,0.125 Z" fill="oklch(90.5% 0.182 98.111)" stroke-width="0.025"></path><!----><path stroke="currentColor" stroke-linecap="round" stroke-linejoin="round" d="M 0.5877852522924732,0.8090169943749475 L 0.6786030682931433,0.5295084971874737 0.33930153414657166,0.4670084971874737 0.2938926261462366,0.8090169943749475 Z" fill="oklch(90.5% 0.182 98.111)" stroke-width="0.025"></path><!----><path stroke="currentColor" stroke-linecap="round" stroke-linejoin="round" d="M 0.2938926261462366,0.8090169943749475 L 0.33930153414657166,0.4670084971874737 0,0.4045084971874737 0,0.8090169943749475 Z" fill="oklch(90.5% 0.182 98.111)" stroke-width="0.025"></path><!----><path stroke="currentColor" stroke-linecap="round" stroke-linejoin="round" d="M 0.6786030682931433,0.5295084971874737 L 0.7694208842938134,0.25 0.3847104421469067,0.125 0.33930153414657166,0.4670084971874737 Z" fill="oklch(90.5% 0.182 98.111)" stroke-width="0.025"></path><!----><path stroke="currentColor" stroke-linecap="round" stroke-linejoin="round" d="M 0.33930153414657166,0.4670084971874737 L 0.3847104421469067,0.125 0,0 0,0.4045084971874737 Z" fill="oklch(90.5% 0.182 98.111)" stroke-width="0.025"></path><!----><path stroke="currentColor" stroke-linecap="round" stroke-linejoin="round" d="M -0.5877852522924732,0.8090169943749475 L -0.2938926261462366,0.8090169943749475 -0.33930153414657166,0.4670084971874737 -0.6786030682931433,0.5295084971874737 Z" fill="oklch(90.5% 0.182 98.111)" stroke-width="0.025"></path><!----><path stroke="currentColor" stroke-linecap="round" stroke-linejoin="round" d="M -0.6786030682931433,0.5295084971874737 L -0.33930153414657166,0.4670084971874737 -0.3847104421469067,0.125 -0.7694208842938134,0.25 Z" fill="oklch(90.5% 0.182 98.111)" stroke-width="0.025"></path><!----><path stroke="currentColor" stroke-linecap="round" stroke-linejoin="round" d="M -0.2938926261462366,0.8090169943749475 L 0,0.8090169943749475 0,0.4045084971874737 -0.33930153414657166,0.4670084971874737 Z" fill="oklch(90.5% 0.182 98.111)" stroke-width="0.025"></path><!----><path stroke="currentColor" stroke-linecap="round" stroke-linejoin="round" d="M -0.33930153414657166,0.4670084971874737 L 0,0.4045084971874737 0,0 -0.3847104421469067,0.125 Z" fill="oklch(90.5% 0.182 98.111)" stroke-width="0.025"></path><!----><path stroke="currentColor" stroke-linecap="round" stroke-linejoin="round" d="M -0.9510565162951535,-0.30901699437494745 L -0.8602387002944835,-0.029508497187473726 -0.5490014146841359,-0.1783813728906053 -0.7132923872213651,-0.4817627457812106 Z" fill="oklch(90.5% 0.182 98.111)" stroke-width="0.025"></path><!----><path stroke="currentColor" stroke-linecap="round" stroke-linejoin="round" d="M -0.7132923872213651,-0.4817627457812106 L -0.5490014146841359,-0.1783813728906053 -0.23776412907378838,-0.32725424859373686 -0.47552825814757677,-0.6545084971874737 Z" fill="oklch(90.5% 0.182 98.111)" stroke-width="0.025"></path><!----><path stroke="currentColor" stroke-linecap="round" stroke-linejoin="round" d="M -0.8602387002944835,-0.029508497187473726 L -0.7694208842938134,0.25 -0.3847104421469067,0.125 -0.5490014146841359,-0.1783813728906053 Z" fill="oklch(90.5% 0.182 98.111)" stroke-width="0.025"></path><!----><path stroke="currentColor" stroke-linecap="round" stroke-linejoin="round" d="M -0.5490014146841359,-0.1783813728906053 L -0.3847104421469067,0.125 0,0 -0.23776412907378838,-0.32725424859373686 Z" fill="oklch(90.5% 0.182 98.111)" stroke-width="0.025"></path><!----></g><path stroke="currentColor" stroke-linecap="round" stroke-linejoin="round" d="M 0,-1 L 0.9510565162951535,-0.30901699437494745 0.5877852522924732,0.8090169943749475 -0.5877852522924732,0.8090169943749475 -0.9510565162951535,-0.30901699437494745 Z" stroke-width="0.025" transform="translate(-1.5388417685876268,0.5) rotate(36)"></path><g transform="translate(-1.5388417685876268,0.5) rotate(36)"><path stroke="currentColor" stroke-linecap="round" stroke-linejoin="round" d="M 0,-1 L -0.23776412907378838,-0.8272542485937369 0,-0.5772542485937369 0.23776412907378838,-0.8272542485937369 Z" fill="oklch(70.2% 0.183 293.541)" stroke-width="0.025"></path><!----><path stroke="currentColor" stroke-linecap="round" stroke-linejoin="round" d="M 0.23776412907378838,-0.8272542485937369 L 0,-0.5772542485937369 0.23776412907378838,-0.32725424859373686 0.47552825814757677,-0.6545084971874737 Z" fill="oklch(70.2% 0.183 293.541)" stroke-width="0.025"></path><!----><path stroke="currentColor" stroke-linecap="round" stroke-linejoin="round" d="M -0.23776412907378838,-0.8272542485937369 L -0.47552825814757677,-0.6545084971874737 -0.23776412907378838,-0.32725424859373686 0,-0.5772542485937369 Z" fill="oklch(70.2% 0.183 293.541)" stroke-width="0.025"></path><!----><path stroke="currentColor" stroke-linecap="round" stroke-linejoin="round" d="M 0,-0.5772542485937369 L -0.23776412907378838,-0.32725424859373686 0,0 0.23776412907378838,-0.32725424859373686 Z" fill="oklch(70.2% 0.183 293.541)" stroke-width="0.025"></path><!----><path stroke="currentColor" stroke-linecap="round" stroke-linejoin="round" d="M 0.9510565162951535,-0.30901699437494745 L 0.7132923872213651,-0.4817627457812106 0.5490014146841359,-0.1783813728906053 0.8602387002944835,-0.029508497187473726 Z" fill="oklch(70.2% 0.183 293.541)" stroke-width="0.025"></path><!----><path stroke="currentColor" stroke-linecap="round" stroke-linejoin="round" d="M 0.8602387002944835,-0.029508497187473726 L 0.5490014146841359,-0.1783813728906053 0.3847104421469067,0.125 0.7694208842938134,0.25 Z" fill="oklch(70.2% 0.183 293.541)" stroke-width="0.025"></path><!----><path stroke="currentColor" stroke-linecap="round" stroke-linejoin="round" d="M 0.7132923872213651,-0.4817627457812106 L 0.47552825814757677,-0.6545084971874737 0.23776412907378838,-0.32725424859373686 0.5490014146841359,-0.1783813728906053 Z" fill="oklch(70.2% 0.183 293.541)" stroke-width="0.025"></path><!----><path stroke="currentColor" stroke-linecap="round" stroke-linejoin="round" d="M 0.5490014146841359,-0.1783813728906053 L 0.23776412907378838,-0.32725424859373686 0,0 0.3847104421469067,0.125 Z" fill="oklch(70.2% 0.183 293.541)" stroke-width="0.025"></path><!----><path stroke="currentColor" stroke-linecap="round" stroke-linejoin="round" d="M 0.5877852522924732,0.8090169943749475 L 0.6786030682931433,0.5295084971874737 0.33930153414657166,0.4670084971874737 0.2938926261462366,0.8090169943749475 Z" fill="oklch(70.2% 0.183 293.541)" stroke-width="0.025"></path><!----><path stroke="currentColor" stroke-linecap="round" stroke-linejoin="round" d="M 0.2938926261462366,0.8090169943749475 L 0.33930153414657166,0.4670084971874737 0,0.4045084971874737 0,0.8090169943749475 Z" fill="oklch(70.2% 0.183 293.541)" stroke-width="0.025"></path><!----><path stroke="currentColor" stroke-linecap="round" stroke-linejoin="round" d="M 0.6786030682931433,0.5295084971874737 L 0.7694208842938134,0.25 0.3847104421469067,0.125 0.33930153414657166,0.4670084971874737 Z" fill="oklch(70.2% 0.183 293.541)" stroke-width="0.025"></path><!----><path stroke="currentColor" stroke-linecap="round" stroke-linejoin="round" d="M 0.33930153414657166,0.4670084971874737 L 0.3847104421469067,0.125 0,0 0,0.4045084971874737 Z" fill="oklch(70.2% 0.183 293.541)" stroke-width="0.025"></path><!----><path stroke="currentColor" stroke-linecap="round" stroke-linejoin="round" d="M -0.5877852522924732,0.8090169943749475 L -0.2938926261462366,0.8090169943749475 -0.33930153414657166,0.4670084971874737 -0.6786030682931433,0.5295084971874737 Z" fill="oklch(70.2% 0.183 293.541)" stroke-width="0.025"></path><!----><path stroke="currentColor" stroke-linecap="round" stroke-linejoin="round" d="M -0.6786030682931433,0.5295084971874737 L -0.33930153414657166,0.4670084971874737 -0.3847104421469067,0.125 -0.7694208842938134,0.25 Z" fill="oklch(70.2% 0.183 293.541)" stroke-width="0.025"></path><!----><path stroke="currentColor" stroke-linecap="round" stroke-linejoin="round" d="M -0.2938926261462366,0.8090169943749475 L 0,0.8090169943749475 0,0.4045084971874737 -0.33930153414657166,0.4670084971874737 Z" fill="oklch(70.2% 0.183 293.541)" stroke-width="0.025"></path><!----><path stroke="currentColor" stroke-linecap="round" stroke-linejoin="round" d="M -0.33930153414657166,0.4670084971874737 L 0,0.4045084971874737 0,0 -0.3847104421469067,0.125 Z" fill="oklch(70.2% 0.183 293.541)" stroke-width="0.025"></path><!----><path stroke="currentColor" stroke-linecap="round" stroke-linejoin="round" d="M -0.9510565162951535,-0.30901699437494745 L -0.8602387002944835,-0.029508497187473726 -0.5490014146841359,-0.1783813728906053 -0.7132923872213651,-0.4817627457812106 Z" fill="oklch(70.2% 0.183 293.541)" stroke-width="0.025"></path><!----><path stroke="currentColor" stroke-linecap="round" stroke-linejoin="round" d="M -0.7132923872213651,-0.4817627457812106 L -0.5490014146841359,-0.1783813728906053 -0.23776412907378838,-0.32725424859373686 -0.47552825814757677,-0.6545084971874737 Z" fill="oklch(70.2% 0.183 293.541)" stroke-width="0.025"></path><!----><path stroke="currentColor" stroke-linecap="round" stroke-linejoin="round" d="M -0.8602387002944835,-0.029508497187473726 L -0.7694208842938134,0.25 -0.3847104421469067,0.125 -0.5490014146841359,-0.1783813728906053 Z" fill="oklch(70.2% 0.183 293.541)" stroke-width="0.025"></path><!----><path stroke="currentColor" stroke-linecap="round" stroke-linejoin="round" d="M -0.5490014146841359,-0.1783813728906053 L -0.3847104421469067,0.125 0,0 -0.23776412907378838,-0.32725424859373686 Z" fill="oklch(70.2% 0.183 293.541)" stroke-width="0.025"></path><!----></g><path stroke="currentColor" stroke-linecap="round" stroke-linejoin="round" d="M 0,-1 L 0.9510565162951535,-0.30901699437494745 0.5877852522924732,0.8090169943749475 -0.5877852522924732,0.8090169943749475 -0.9510565162951535,-0.30901699437494745 Z" stroke-width="0.025" transform="translate(0,1.618033988749895) rotate(36)"></path><g transform="translate(0,1.618033988749895) rotate(36)"><path stroke="currentColor" stroke-linecap="round" stroke-linejoin="round" d="M 0,-1 L -0.23776412907378838,-0.8272542485937369 0,-0.5772542485937369 0.23776412907378838,-0.8272542485937369 Z" fill="oklch(98.5% 0.002 247.839)" stroke-width="0.025"></path><!----><path stroke="currentColor" stroke-linecap="round" stroke-linejoin="round" d="M 0.23776412907378838,-0.8272542485937369 L 0,-0.5772542485937369 0.23776412907378838,-0.32725424859373686 0.47552825814757677,-0.6545084971874737 Z" fill="oklch(98.5% 0.002 247.839)" stroke-width="0.025"></path><!----><path stroke="currentColor" stroke-linecap="round" stroke-linejoin="round" d="M -0.23776412907378838,-0.8272542485937369 L -0.47552825814757677,-0.6545084971874737 -0.23776412907378838,-0.32725424859373686 0,-0.5772542485937369 Z" fill="oklch(98.5% 0.002 247.839)" stroke-width="0.025"></path><!----><path stroke="currentColor" stroke-linecap="round" stroke-linejoin="round" d="M 0,-0.5772542485937369 L -0.23776412907378838,-0.32725424859373686 0,0 0.23776412907378838,-0.32725424859373686 Z" fill="oklch(98.5% 0.002 247.839)" stroke-width="0.025"></path><!----><path stroke="currentColor" stroke-linecap="round" stroke-linejoin="round" d="M 0.9510565162951535,-0.30901699437494745 L 0.7132923872213651,-0.4817627457812106 0.5490014146841359,-0.1783813728906053 0.8602387002944835,-0.029508497187473726 Z" fill="oklch(98.5% 0.002 247.839)" stroke-width="0.025"></path><!----><path stroke="currentColor" stroke-linecap="round" stroke-linejoin="round" d="M 0.8602387002944835,-0.029508497187473726 L 0.5490014146841359,-0.1783813728906053 0.3847104421469067,0.125 0.7694208842938134,0.25 Z" fill="oklch(98.5% 0.002 247.839)" stroke-width="0.025"></path><!----><path stroke="currentColor" stroke-linecap="round" stroke-linejoin="round" d="M 0.7132923872213651,-0.4817627457812106 L 0.47552825814757677,-0.6545084971874737 0.23776412907378838,-0.32725424859373686 0.5490014146841359,-0.1783813728906053 Z" fill="oklch(98.5% 0.002 247.839)" stroke-width="0.025"></path><!----><path stroke="currentColor" stroke-linecap="round" stroke-linejoin="round" d="M 0.5490014146841359,-0.1783813728906053 L 0.23776412907378838,-0.32725424859373686 0,0 0.3847104421469067,0.125 Z" fill="oklch(98.5% 0.002 247.839)" stroke-width="0.025"></path><!----><path stroke="currentColor" stroke-linecap="round" stroke-linejoin="round" d="M 0.5877852522924732,0.8090169943749475 L 0.6786030682931433,0.5295084971874737 0.33930153414657166,0.4670084971874737 0.2938926261462366,0.8090169943749475 Z" fill="oklch(98.5% 0.002 247.839)" stroke-width="0.025"></path><!----><path stroke="currentColor" stroke-linecap="round" stroke-linejoin="round" d="M 0.2938926261462366,0.8090169943749475 L 0.33930153414657166,0.4670084971874737 0,0.4045084971874737 0,0.8090169943749475 Z" fill="oklch(98.5% 0.002 247.839)" stroke-width="0.025"></path><!----><path stroke="currentColor" stroke-linecap="round" stroke-linejoin="round" d="M 0.6786030682931433,0.5295084971874737 L 0.7694208842938134,0.25 0.3847104421469067,0.125 0.33930153414657166,0.4670084971874737 Z" fill="oklch(98.5% 0.002 247.839)" stroke-width="0.025"></path><!----><path stroke="currentColor" stroke-linecap="round" stroke-linejoin="round" d="M 0.33930153414657166,0.4670084971874737 L 0.3847104421469067,0.125 0,0 0,0.4045084971874737 Z" fill="oklch(98.5% 0.002 247.839)" stroke-width="0.025"></path><!----><path stroke="currentColor" stroke-linecap="round" stroke-linejoin="round" d="M -0.5877852522924732,0.8090169943749475 L -0.2938926261462366,0.8090169943749475 -0.33930153414657166,0.4670084971874737 -0.6786030682931433,0.5295084971874737 Z" fill="oklch(98.5% 0.002 247.839)" stroke-width="0.025"></path><!----><path stroke="currentColor" stroke-linecap="round" stroke-linejoin="round" d="M -0.6786030682931433,0.5295084971874737 L -0.33930153414657166,0.4670084971874737 -0.3847104421469067,0.125 -0.7694208842938134,0.25 Z" fill="oklch(98.5% 0.002 247.839)" stroke-width="0.025"></path><!----><path stroke="currentColor" stroke-linecap="round" stroke-linejoin="round" d="M -0.2938926261462366,0.8090169943749475 L 0,0.8090169943749475 0,0.4045084971874737 -0.33930153414657166,0.4670084971874737 Z" fill="oklch(98.5% 0.002 247.839)" stroke-width="0.025"></path><!----><path stroke="currentColor" stroke-linecap="round" stroke-linejoin="round" d="M -0.33930153414657166,0.4670084971874737 L 0,0.4045084971874737 0,0 -0.3847104421469067,0.125 Z" fill="oklch(98.5% 0.002 247.839)" stroke-width="0.025"></path><!----><path stroke="currentColor" stroke-linecap="round" stroke-linejoin="round" d="M -0.9510565162951535,-0.30901699437494745 L -0.8602387002944835,-0.029508497187473726 -0.5490014146841359,-0.1783813728906053 -0.7132923872213651,-0.4817627457812106 Z" fill="oklch(98.5% 0.002 247.839)" stroke-width="0.025"></path><!----><path stroke="currentColor" stroke-linecap="round" stroke-linejoin="round" d="M -0.7132923872213651,-0.4817627457812106 L -0.5490014146841359,-0.1783813728906053 -0.23776412907378838,-0.32725424859373686 -0.47552825814757677,-0.6545084971874737 Z" fill="oklch(98.5% 0.002 247.839)" stroke-width="0.025"></path><!----><path stroke="currentColor" stroke-linecap="round" stroke-linejoin="round" d="M -0.8602387002944835,-0.029508497187473726 L -0.7694208842938134,0.25 -0.3847104421469067,0.125 -0.5490014146841359,-0.1783813728906053 Z" fill="oklch(98.5% 0.002 247.839)" stroke-width="0.025"></path><!----><path stroke="currentColor" stroke-linecap="round" stroke-linejoin="round" d="M -0.5490014146841359,-0.1783813728906053 L -0.3847104421469067,0.125 0,0 -0.23776412907378838,-0.32725424859373686 Z" fill="oklch(98.5% 0.002 247.839)" stroke-width="0.025"></path><!----></g><path stroke="currentColor" stroke-linecap="round" stroke-linejoin="round" d="M 0,-1 L 0.9510565162951535,-0.30901699437494745 0.5877852522924732,0.8090169943749475 -0.5877852522924732,0.8090169943749475 -0.9510565162951535,-0.30901699437494745 Z" stroke-width="0.025" transform="translate(1.5388417685876268,0.5) rotate(36)"></path><g transform="translate(1.5388417685876268,0.5) rotate(36)"><path stroke="currentColor" stroke-linecap="round" stroke-linejoin="round" d="M 0,-1 L -0.23776412907378838,-0.8272542485937369 0,-0.5772542485937369 0.23776412907378838,-0.8272542485937369 Z" fill="oklch(58.8% 0.158 241.966)" stroke-width="0.025"></path><!----><path stroke="currentColor" stroke-linecap="round" stroke-linejoin="round" d="M 0.23776412907378838,-0.8272542485937369 L 0,-0.5772542485937369 0.23776412907378838,-0.32725424859373686 0.47552825814757677,-0.6545084971874737 Z" fill="oklch(58.8% 0.158 241.966)" stroke-width="0.025"></path><!----><path stroke="currentColor" stroke-linecap="round" stroke-linejoin="round" d="M -0.23776412907378838,-0.8272542485937369 L -0.47552825814757677,-0.6545084971874737 -0.23776412907378838,-0.32725424859373686 0,-0.5772542485937369 Z" fill="oklch(58.8% 0.158 241.966)" stroke-width="0.025"></path><!----><path stroke="currentColor" stroke-linecap="round" stroke-linejoin="round" d="M 0,-0.5772542485937369 L -0.23776412907378838,-0.32725424859373686 0,0 0.23776412907378838,-0.32725424859373686 Z" fill="oklch(58.8% 0.158 241.966)" stroke-width="0.025"></path><!----><path stroke="currentColor" stroke-linecap="round" stroke-linejoin="round" d="M 0.9510565162951535,-0.30901699437494745 L 0.7132923872213651,-0.4817627457812106 0.5490014146841359,-0.1783813728906053 0.8602387002944835,-0.029508497187473726 Z" fill="oklch(58.8% 0.158 241.966)" stroke-width="0.025"></path><!----><path stroke="currentColor" stroke-linecap="round" stroke-linejoin="round" d="M 0.8602387002944835,-0.029508497187473726 L 0.5490014146841359,-0.1783813728906053 0.3847104421469067,0.125 0.7694208842938134,0.25 Z" fill="oklch(58.8% 0.158 241.966)" stroke-width="0.025"></path><!----><path stroke="currentColor" stroke-linecap="round" stroke-linejoin="round" d="M 0.7132923872213651,-0.4817627457812106 L 0.47552825814757677,-0.6545084971874737 0.23776412907378838,-0.32725424859373686 0.5490014146841359,-0.1783813728906053 Z" fill="oklch(58.8% 0.158 241.966)" stroke-width="0.025"></path><!----><path stroke="currentColor" stroke-linecap="round" stroke-linejoin="round" d="M 0.5490014146841359,-0.1783813728906053 L 0.23776412907378838,-0.32725424859373686 0,0 0.3847104421469067,0.125 Z" fill="oklch(58.8% 0.158 241.966)" stroke-width="0.025"></path><!----><path stroke="currentColor" stroke-linecap="round" stroke-linejoin="round" d="M 0.5877852522924732,0.8090169943749475 L 0.6786030682931433,0.5295084971874737 0.33930153414657166,0.4670084971874737 0.2938926261462366,0.8090169943749475 Z" fill="oklch(58.8% 0.158 241.966)" stroke-width="0.025"></path><!----><path stroke="currentColor" stroke-linecap="round" stroke-linejoin="round" d="M 0.2938926261462366,0.8090169943749475 L 0.33930153414657166,0.4670084971874737 0,0.4045084971874737 0,0.8090169943749475 Z" fill="oklch(58.8% 0.158 241.966)" stroke-width="0.025"></path><!----><path stroke="currentColor" stroke-linecap="round" stroke-linejoin="round" d="M 0.6786030682931433,0.5295084971874737 L 0.7694208842938134,0.25 0.3847104421469067,0.125 0.33930153414657166,0.4670084971874737 Z" fill="oklch(58.8% 0.158 241.966)" stroke-width="0.025"></path><!----><path stroke="currentColor" stroke-linecap="round" stroke-linejoin="round" d="M 0.33930153414657166,0.4670084971874737 L 0.3847104421469067,0.125 0,0 0,0.4045084971874737 Z" fill="oklch(58.8% 0.158 241.966)" stroke-width="0.025"></path><!----><path stroke="currentColor" stroke-linecap="round" stroke-linejoin="round" d="M -0.5877852522924732,0.8090169943749475 L -0.2938926261462366,0.8090169943749475 -0.33930153414657166,0.4670084971874737 -0.6786030682931433,0.5295084971874737 Z" fill="oklch(58.8% 0.158 241.966)" stroke-width="0.025"></path><!----><path stroke="currentColor" stroke-linecap="round" stroke-linejoin="round" d="M -0.6786030682931433,0.5295084971874737 L -0.33930153414657166,0.4670084971874737 -0.3847104421469067,0.125 -0.7694208842938134,0.25 Z" fill="oklch(58.8% 0.158 241.966)" stroke-width="0.025"></path><!----><path stroke="currentColor" stroke-linecap="round" stroke-linejoin="round" d="M -0.2938926261462366,0.8090169943749475 L 0,0.8090169943749475 0,0.4045084971874737 -0.33930153414657166,0.4670084971874737 Z" fill="oklch(58.8% 0.158 241.966)" stroke-width="0.025"></path><!----><path stroke="currentColor" stroke-linecap="round" stroke-linejoin="round" d="M -0.33930153414657166,0.4670084971874737 L 0,0.4045084971874737 0,0 -0.3847104421469067,0.125 Z" fill="oklch(58.8% 0.158 241.966)" stroke-width="0.025"></path><!----><path stroke="currentColor" stroke-linecap="round" stroke-linejoin="round" d="M -0.9510565162951535,-0.30901699437494745 L -0.8602387002944835,-0.029508497187473726 -0.5490014146841359,-0.1783813728906053 -0.7132923872213651,-0.4817627457812106 Z" fill="oklch(58.8% 0.158 241.966)" stroke-width="0.025"></path><!----><path stroke="currentColor" stroke-linecap="round" stroke-linejoin="round" d="M -0.7132923872213651,-0.4817627457812106 L -0.5490014146841359,-0.1783813728906053 -0.23776412907378838,-0.32725424859373686 -0.47552825814757677,-0.6545084971874737 Z" fill="oklch(58.8% 0.158 241.966)" stroke-width="0.025"></path><!----><path stroke="currentColor" stroke-linecap="round" stroke-linejoin="round" d="M -0.8602387002944835,-0.029508497187473726 L -0.7694208842938134,0.25 -0.3847104421469067,0.125 -0.5490014146841359,-0.1783813728906053 Z" fill="oklch(58.8% 0.158 241.966)" stroke-width="0.025"></path><!----><path stroke="currentColor" stroke-linecap="round" stroke-linejoin="round" d="M -0.5490014146841359,-0.1783813728906053 L -0.3847104421469067,0.125 0,0 -0.23776412907378838,-0.32725424859373686 Z" fill="oklch(58.8% 0.158 241.966)" stroke-width="0.025"></path><!----></g><path stroke="currentColor" stroke-linecap="round" stroke-linejoin="round" d="M 0,-1 L 0.9510565162951535,-0.30901699437494745 0.5877852522924732,0.8090169943749475 -0.5877852522924732,0.8090169943749475 -0.9510565162951535,-0.30901699437494745 Z" stroke-width="0.025" transform="translate(-0.9510565162951535,-1.3090169943749475) rotate(36)"></path><g transform="translate(-0.9510565162951535,-1.3090169943749475) rotate(36)"><path stroke="currentColor" stroke-linecap="round" stroke-linejoin="round" d="M 0,-1 L -0.23776412907378838,-0.8272542485937369 0,-0.5772542485937369 0.23776412907378838,-0.8272542485937369 Z" fill="oklch(76.9% 0.188 70.08)" stroke-width="0.025"></path><!----><path stroke="currentColor" stroke-linecap="round" stroke-linejoin="round" d="M 0.23776412907378838,-0.8272542485937369 L 0,-0.5772542485937369 0.23776412907378838,-0.32725424859373686 0.47552825814757677,-0.6545084971874737 Z" fill="oklch(76.9% 0.188 70.08)" stroke-width="0.025"></path><!----><path stroke="currentColor" stroke-linecap="round" stroke-linejoin="round" d="M -0.23776412907378838,-0.8272542485937369 L -0.47552825814757677,-0.6545084971874737 -0.23776412907378838,-0.32725424859373686 0,-0.5772542485937369 Z" fill="oklch(76.9% 0.188 70.08)" stroke-width="0.025"></path><!----><path stroke="currentColor" stroke-linecap="round" stroke-linejoin="round" d="M 0,-0.5772542485937369 L -0.23776412907378838,-0.32725424859373686 0,0 0.23776412907378838,-0.32725424859373686 Z" fill="oklch(76.9% 0.188 70.08)" stroke-width="0.025"></path><!----><path stroke="currentColor" stroke-linecap="round" stroke-linejoin="round" d="M 0.9510565162951535,-0.30901699437494745 L 0.7132923872213651,-0.4817627457812106 0.5490014146841359,-0.1783813728906053 0.8602387002944835,-0.029508497187473726 Z" fill="oklch(76.9% 0.188 70.08)" stroke-width="0.025"></path><!----><path stroke="currentColor" stroke-linecap="round" stroke-linejoin="round" d="M 0.8602387002944835,-0.029508497187473726 L 0.5490014146841359,-0.1783813728906053 0.3847104421469067,0.125 0.7694208842938134,0.25 Z" fill="oklch(76.9% 0.188 70.08)" stroke-width="0.025"></path><!----><path stroke="currentColor" stroke-linecap="round" stroke-linejoin="round" d="M 0.7132923872213651,-0.4817627457812106 L 0.47552825814757677,-0.6545084971874737 0.23776412907378838,-0.32725424859373686 0.5490014146841359,-0.1783813728906053 Z" fill="oklch(76.9% 0.188 70.08)" stroke-width="0.025"></path><!----><path stroke="currentColor" stroke-linecap="round" stroke-linejoin="round" d="M 0.5490014146841359,-0.1783813728906053 L 0.23776412907378838,-0.32725424859373686 0,0 0.3847104421469067,0.125 Z" fill="oklch(76.9% 0.188 70.08)" stroke-width="0.025"></path><!----><path stroke="currentColor" stroke-linecap="round" stroke-linejoin="round" d="M 0.5877852522924732,0.8090169943749475 L 0.6786030682931433,0.5295084971874737 0.33930153414657166,0.4670084971874737 0.2938926261462366,0.8090169943749475 Z" fill="oklch(76.9% 0.188 70.08)" stroke-width="0.025"></path><!----><path stroke="currentColor" stroke-linecap="round" stroke-linejoin="round" d="M 0.2938926261462366,0.8090169943749475 L 0.33930153414657166,0.4670084971874737 0,0.4045084971874737 0,0.8090169943749475 Z" fill="oklch(76.9% 0.188 70.08)" stroke-width="0.025"></path><!----><path stroke="currentColor" stroke-linecap="round" stroke-linejoin="round" d="M 0.6786030682931433,0.5295084971874737 L 0.7694208842938134,0.25 0.3847104421469067,0.125 0.33930153414657166,0.4670084971874737 Z" fill="oklch(76.9% 0.188 70.08)" stroke-width="0.025"></path><!----><path stroke="currentColor" stroke-linecap="round" stroke-linejoin="round" d="M 0.33930153414657166,0.4670084971874737 L 0.3847104421469067,0.125 0,0 0,0.4045084971874737 Z" fill="oklch(76.9% 0.188 70.08)" stroke-width="0.025"></path><!----><path stroke="currentColor" stroke-linecap="round" stroke-linejoin="round" d="M -0.5877852522924732,0.8090169943749475 L -0.2938926261462366,0.8090169943749475 -0.33930153414657166,0.4670084971874737 -0.6786030682931433,0.5295084971874737 Z" fill="oklch(76.9% 0.188 70.08)" stroke-width="0.025"></path><!----><path stroke="currentColor" stroke-linecap="round" stroke-linejoin="round" d="M -0.6786030682931433,0.5295084971874737 L -0.33930153414657166,0.4670084971874737 -0.3847104421469067,0.125 -0.7694208842938134,0.25 Z" fill="oklch(76.9% 0.188 70.08)" stroke-width="0.025"></path><!----><path stroke="currentColor" stroke-linecap="round" stroke-linejoin="round" d="M -0.2938926261462366,0.8090169943749475 L 0,0.8090169943749475 0,0.4045084971874737 -0.33930153414657166,0.4670084971874737 Z" fill="oklch(76.9% 0.188 70.08)" stroke-width="0.025"></path><!----><path stroke="currentColor" stroke-linecap="round" stroke-linejoin="round" d="M -0.33930153414657166,0.4670084971874737 L 0,0.4045084971874737 0,0 -0.3847104421469067,0.125 Z" fill="oklch(76.9% 0.188 70.08)" stroke-width="0.025"></path><!----><path stroke="currentColor" stroke-linecap="round" stroke-linejoin="round" d="M -0.9510565162951535,-0.30901699437494745 L -0.8602387002944835,-0.029508497187473726 -0.5490014146841359,-0.1783813728906053 -0.7132923872213651,-0.4817627457812106 Z" fill="oklch(76.9% 0.188 70.08)" stroke-width="0.025"></path><!----><path stroke="currentColor" stroke-linecap="round" stroke-linejoin="round" d="M -0.7132923872213651,-0.4817627457812106 L -0.5490014146841359,-0.1783813728906053 -0.23776412907378838,-0.32725424859373686 -0.47552825814757677,-0.6545084971874737 Z" fill="oklch(76.9% 0.188 70.08)" stroke-width="0.025"></path><!----><path stroke="currentColor" stroke-linecap="round" stroke-linejoin="round" d="M -0.8602387002944835,-0.029508497187473726 L -0.7694208842938134,0.25 -0.3847104421469067,0.125 -0.5490014146841359,-0.1783813728906053 Z" fill="oklch(76.9% 0.188 70.08)" stroke-width="0.025"></path><!----><path stroke="currentColor" stroke-linecap="round" stroke-linejoin="round" d="M -0.5490014146841359,-0.1783813728906053 L -0.3847104421469067,0.125 0,0 -0.23776412907378838,-0.32725424859373686 Z" fill="oklch(76.9% 0.188 70.08)" stroke-width="0.025"></path><!----></g><path stroke="currentColor" stroke-linecap="round" stroke-linejoin="round" d="M 0,-1 L 0.9510565162951535,-0.30901699437494745 0.5877852522924732,0.8090169943749475 -0.5877852522924732,0.8090169943749475 -0.9510565162951535,-0.30901699437494745 Z" stroke-width="0.025" transform="translate(0.9510565162951535,-1.3090169943749475) rotate(36)"></path><g transform="translate(0.9510565162951535,-1.3090169943749475) rotate(36)"><path stroke="currentColor" stroke-linecap="round" stroke-linejoin="round" d="M 0,-1 L -0.23776412907378838,-0.8272542485937369 0,-0.5772542485937369 0.23776412907378838,-0.8272542485937369 Z" fill="oklch(84.5% 0.143 164.978)" stroke-width="0.025"></path><!----><path stroke="currentColor" stroke-linecap="round" stroke-linejoin="round" d="M 0.23776412907378838,-0.8272542485937369 L 0,-0.5772542485937369 0.23776412907378838,-0.32725424859373686 0.47552825814757677,-0.6545084971874737 Z" fill="oklch(84.5% 0.143 164.978)" stroke-width="0.025"></path><!----><path stroke="currentColor" stroke-linecap="round" stroke-linejoin="round" d="M -0.23776412907378838,-0.8272542485937369 L -0.47552825814757677,-0.6545084971874737 -0.23776412907378838,-0.32725424859373686 0,-0.5772542485937369 Z" fill="oklch(84.5% 0.143 164.978)" stroke-width="0.025"></path><!----><path stroke="currentColor" stroke-linecap="round" stroke-linejoin="round" d="M 0,-0.5772542485937369 L -0.23776412907378838,-0.32725424859373686 0,0 0.23776412907378838,-0.32725424859373686 Z" fill="oklch(84.5% 0.143 164.978)" stroke-width="0.025"></path><!----><path stroke="currentColor" stroke-linecap="round" stroke-linejoin="round" d="M 0.9510565162951535,-0.30901699437494745 L 0.7132923872213651,-0.4817627457812106 0.5490014146841359,-0.1783813728906053 0.8602387002944835,-0.029508497187473726 Z" fill="oklch(84.5% 0.143 164.978)" stroke-width="0.025"></path><!----><path stroke="currentColor" stroke-linecap="round" stroke-linejoin="round" d="M 0.8602387002944835,-0.029508497187473726 L 0.5490014146841359,-0.1783813728906053 0.3847104421469067,0.125 0.7694208842938134,0.25 Z" fill="oklch(84.5% 0.143 164.978)" stroke-width="0.025"></path><!----><path stroke="currentColor" stroke-linecap="round" stroke-linejoin="round" d="M 0.7132923872213651,-0.4817627457812106 L 0.47552825814757677,-0.6545084971874737 0.23776412907378838,-0.32725424859373686 0.5490014146841359,-0.1783813728906053 Z" fill="oklch(84.5% 0.143 164.978)" stroke-width="0.025"></path><!----><path stroke="currentColor" stroke-linecap="round" stroke-linejoin="round" d="M 0.5490014146841359,-0.1783813728906053 L 0.23776412907378838,-0.32725424859373686 0,0 0.3847104421469067,0.125 Z" fill="oklch(84.5% 0.143 164.978)" stroke-width="0.025"></path><!----><path stroke="currentColor" stroke-linecap="round" stroke-linejoin="round" d="M 0.5877852522924732,0.8090169943749475 L 0.6786030682931433,0.5295084971874737 0.33930153414657166,0.4670084971874737 0.2938926261462366,0.8090169943749475 Z" fill="oklch(84.5% 0.143 164.978)" stroke-width="0.025"></path><!----><path stroke="currentColor" stroke-linecap="round" stroke-linejoin="round" d="M 0.2938926261462366,0.8090169943749475 L 0.33930153414657166,0.4670084971874737 0,0.4045084971874737 0,0.8090169943749475 Z" fill="oklch(84.5% 0.143 164.978)" stroke-width="0.025"></path><!----><path stroke="currentColor" stroke-linecap="round" stroke-linejoin="round" d="M 0.6786030682931433,0.5295084971874737 L 0.7694208842938134,0.25 0.3847104421469067,0.125 0.33930153414657166,0.4670084971874737 Z" fill="oklch(84.5% 0.143 164.978)" stroke-width="0.025"></path><!----><path stroke="currentColor" stroke-linecap="round" stroke-linejoin="round" d="M 0.33930153414657166,0.4670084971874737 L 0.3847104421469067,0.125 0,0 0,0.4045084971874737 Z" fill="oklch(84.5% 0.143 164.978)" stroke-width="0.025"></path><!----><path stroke="currentColor" stroke-linecap="round" stroke-linejoin="round" d="M -0.5877852522924732,0.8090169943749475 L -0.2938926261462366,0.8090169943749475 -0.33930153414657166,0.4670084971874737 -0.6786030682931433,0.5295084971874737 Z" fill="oklch(84.5% 0.143 164.978)" stroke-width="0.025"></path><!----><path stroke="currentColor" stroke-linecap="round" stroke-linejoin="round" d="M -0.6786030682931433,0.5295084971874737 L -0.33930153414657166,0.4670084971874737 -0.3847104421469067,0.125 -0.7694208842938134,0.25 Z" fill="oklch(84.5% 0.143 164.978)" stroke-width="0.025"></path><!----><path stroke="currentColor" stroke-linecap="round" stroke-linejoin="round" d="M -0.2938926261462366,0.8090169943749475 L 0,0.8090169943749475 0,0.4045084971874737 -0.33930153414657166,0.4670084971874737 Z" fill="oklch(84.5% 0.143 164.978)" stroke-width="0.025"></path><!----><path stroke="currentColor" stroke-linecap="round" stroke-linejoin="round" d="M -0.33930153414657166,0.4670084971874737 L 0,0.4045084971874737 0,0 -0.3847104421469067,0.125 Z" fill="oklch(84.5% 0.143 164.978)" stroke-width="0.025"></path><!----><path stroke="currentColor" stroke-linecap="round" stroke-linejoin="round" d="M -0.9510565162951535,-0.30901699437494745 L -0.8602387002944835,-0.029508497187473726 -0.5490014146841359,-0.1783813728906053 -0.7132923872213651,-0.4817627457812106 Z" fill="oklch(84.5% 0.143 164.978)" stroke-width="0.025"></path><!----><path stroke="currentColor" stroke-linecap="round" stroke-linejoin="round" d="M -0.7132923872213651,-0.4817627457812106 L -0.5490014146841359,-0.1783813728906053 -0.23776412907378838,-0.32725424859373686 -0.47552825814757677,-0.6545084971874737 Z" fill="oklch(84.5% 0.143 164.978)" stroke-width="0.025"></path><!----><path stroke="currentColor" stroke-linecap="round" stroke-linejoin="round" d="M -0.8602387002944835,-0.029508497187473726 L -0.7694208842938134,0.25 -0.3847104421469067,0.125 -0.5490014146841359,-0.1783813728906053 Z" fill="oklch(84.5% 0.143 164.978)" stroke-width="0.025"></path><!----><path stroke="currentColor" stroke-linecap="round" stroke-linejoin="round" d="M -0.5490014146841359,-0.1783813728906053 L -0.3847104421469067,0.125 0,0 -0.23776412907378838,-0.32725424859373686 Z" fill="oklch(84.5% 0.143 164.978)" stroke-width="0.025"></path><!----></g><path stroke="currentColor" stroke-linecap="round" stroke-linejoin="round" d="M 0,-1 L 0.9510565162951535,-0.30901699437494745 0.5877852522924732,0.8090169943749475 -0.5877852522924732,0.8090169943749475 -0.9510565162951535,-0.30901699437494745 Z" stroke-width="0.025" transform="translate(3.077683537175253,1.1102230246251565e-16) rotate(0)"></path><g transform="translate(3.077683537175253,1.1102230246251565e-16) rotate(0)"><path stroke="currentColor" stroke-linecap="round" stroke-linejoin="round" d="M 0,-1 L -0.23776412907378838,-0.8272542485937369 0,-0.5772542485937369 0.23776412907378838,-0.8272542485937369 Z" fill="oklch(82.3% 0.12 346.018)" stroke-width="0.025"></path><!----><path stroke="currentColor" stroke-linecap="round" stroke-linejoin="round" d="M 0.23776412907378838,-0.8272542485937369 L 0,-0.5772542485937369 0.23776412907378838,-0.32725424859373686 0.47552825814757677,-0.6545084971874737 Z" fill="oklch(82.3% 0.12 346.018)" stroke-width="0.025"></path><!----><path stroke="currentColor" stroke-linecap="round" stroke-linejoin="round" d="M -0.23776412907378838,-0.8272542485937369 L -0.47552825814757677,-0.6545084971874737 -0.23776412907378838,-0.32725424859373686 0,-0.5772542485937369 Z" fill="oklch(82.3% 0.12 346.018)" stroke-width="0.025"></path><!----><path stroke="currentColor" stroke-linecap="round" stroke-linejoin="round" d="M 0,-0.5772542485937369 L -0.23776412907378838,-0.32725424859373686 0,0 0.23776412907378838,-0.32725424859373686 Z" fill="oklch(82.3% 0.12 346.018)" stroke-width="0.025"></path><!----><path stroke="currentColor" stroke-linecap="round" stroke-linejoin="round" d="M 0.9510565162951535,-0.30901699437494745 L 0.7132923872213651,-0.4817627457812106 0.5490014146841359,-0.1783813728906053 0.8602387002944835,-0.029508497187473726 Z" fill="oklch(82.3% 0.12 346.018)" stroke-width="0.025"></path><!----><path stroke="currentColor" stroke-linecap="round" stroke-linejoin="round" d="M 0.8602387002944835,-0.029508497187473726 L 0.5490014146841359,-0.1783813728906053 0.3847104421469067,0.125 0.7694208842938134,0.25 Z" fill="oklch(82.3% 0.12 346.018)" stroke-width="0.025"></path><!----><path stroke="currentColor" stroke-linecap="round" stroke-linejoin="round" d="M 0.7132923872213651,-0.4817627457812106 L 0.47552825814757677,-0.6545084971874737 0.23776412907378838,-0.32725424859373686 0.5490014146841359,-0.1783813728906053 Z" fill="oklch(82.3% 0.12 346.018)" stroke-width="0.025"></path><!----><path stroke="currentColor" stroke-linecap="round" stroke-linejoin="round" d="M 0.5490014146841359,-0.1783813728906053 L 0.23776412907378838,-0.32725424859373686 0,0 0.3847104421469067,0.125 Z" fill="oklch(82.3% 0.12 346.018)" stroke-width="0.025"></path><!----><path stroke="currentColor" stroke-linecap="round" stroke-linejoin="round" d="M 0.5877852522924732,0.8090169943749475 L 0.6786030682931433,0.5295084971874737 0.33930153414657166,0.4670084971874737 0.2938926261462366,0.8090169943749475 Z" fill="oklch(82.3% 0.12 346.018)" stroke-width="0.025"></path><!----><path stroke="currentColor" stroke-linecap="round" stroke-linejoin="round" d="M 0.2938926261462366,0.8090169943749475 L 0.33930153414657166,0.4670084971874737 0,0.4045084971874737 0,0.8090169943749475 Z" fill="oklch(82.3% 0.12 346.018)" stroke-width="0.025"></path><!----><path stroke="currentColor" stroke-linecap="round" stroke-linejoin="round" d="M 0.6786030682931433,0.5295084971874737 L 0.7694208842938134,0.25 0.3847104421469067,0.125 0.33930153414657166,0.4670084971874737 Z" fill="oklch(82.3% 0.12 346.018)" stroke-width="0.025"></path><!----><path stroke="currentColor" stroke-linecap="round" stroke-linejoin="round" d="M 0.33930153414657166,0.4670084971874737 L 0.3847104421469067,0.125 0,0 0,0.4045084971874737 Z" fill="oklch(82.3% 0.12 346.018)" stroke-width="0.025"></path><!----><path stroke="currentColor" stroke-linecap="round" stroke-linejoin="round" d="M -0.5877852522924732,0.8090169943749475 L -0.2938926261462366,0.8090169943749475 -0.33930153414657166,0.4670084971874737 -0.6786030682931433,0.5295084971874737 Z" fill="oklch(82.3% 0.12 346.018)" stroke-width="0.025"></path><!----><path stroke="currentColor" stroke-linecap="round" stroke-linejoin="round" d="M -0.6786030682931433,0.5295084971874737 L -0.33930153414657166,0.4670084971874737 -0.3847104421469067,0.125 -0.7694208842938134,0.25 Z" fill="oklch(82.3% 0.12 346.018)" stroke-width="0.025"></path><!----><path stroke="currentColor" stroke-linecap="round" stroke-linejoin="round" d="M -0.2938926261462366,0.8090169943749475 L 0,0.8090169943749475 0,0.4045084971874737 -0.33930153414657166,0.4670084971874737 Z" fill="oklch(82.3% 0.12 346.018)" stroke-width="0.025"></path><!----><path stroke="currentColor" stroke-linecap="round" stroke-linejoin="round" d="M -0.33930153414657166,0.4670084971874737 L 0,0.4045084971874737 0,0 -0.3847104421469067,0.125 Z" fill="oklch(82.3% 0.12 346.018)" stroke-width="0.025"></path><!----><path stroke="currentColor" stroke-linecap="round" stroke-linejoin="round" d="M -0.9510565162951535,-0.30901699437494745 L -0.8602387002944835,-0.029508497187473726 -0.5490014146841359,-0.1783813728906053 -0.7132923872213651,-0.4817627457812106 Z" fill="oklch(82.3% 0.12 346.018)" stroke-width="0.025"></path><!----><path stroke="currentColor" stroke-linecap="round" stroke-linejoin="round" d="M -0.7132923872213651,-0.4817627457812106 L -0.5490014146841359,-0.1783813728906053 -0.23776412907378838,-0.32725424859373686 -0.47552825814757677,-0.6545084971874737 Z" fill="oklch(82.3% 0.12 346.018)" stroke-width="0.025"></path><!----><path stroke="currentColor" stroke-linecap="round" stroke-linejoin="round" d="M -0.8602387002944835,-0.029508497187473726 L -0.7694208842938134,0.25 -0.3847104421469067,0.125 -0.5490014146841359,-0.1783813728906053 Z" fill="oklch(82.3% 0.12 346.018)" stroke-width="0.025"></path><!----><path stroke="currentColor" stroke-linecap="round" stroke-linejoin="round" d="M -0.5490014146841359,-0.1783813728906053 L -0.3847104421469067,0.125 0,0 -0.23776412907378838,-0.32725424859373686 Z" fill="oklch(82.3% 0.12 346.018)" stroke-width="0.025"></path><!----></g><path stroke="currentColor" stroke-linecap="round" stroke-linejoin="round" d="M 0,-1 L 0.9510565162951535,-0.30901699437494745 0.5877852522924732,0.8090169943749475 -0.5877852522924732,0.8090169943749475 -0.9510565162951535,-0.30901699437494745 Z" stroke-width="0.025" transform="translate(4.616525305762879,0.5) rotate(36)"></path><g transform="translate(4.616525305762879,0.5) rotate(36)"><path stroke="currentColor" stroke-linecap="round" stroke-linejoin="round" d="M 0,-1 L -0.23776412907378838,-0.8272542485937369 0,-0.5772542485937369 0.23776412907378838,-0.8272542485937369 Z" fill="oklch(90.1% 0.076 70.697)" stroke-width="0.025"></path><!----><path stroke="currentColor" stroke-linecap="round" stroke-linejoin="round" d="M 0.23776412907378838,-0.8272542485937369 L 0,-0.5772542485937369 0.23776412907378838,-0.32725424859373686 0.47552825814757677,-0.6545084971874737 Z" fill="oklch(90.1% 0.076 70.697)" stroke-width="0.025"></path><!----><path stroke="currentColor" stroke-linecap="round" stroke-linejoin="round" d="M -0.23776412907378838,-0.8272542485937369 L -0.47552825814757677,-0.6545084971874737 -0.23776412907378838,-0.32725424859373686 0,-0.5772542485937369 Z" fill="oklch(90.1% 0.076 70.697)" stroke-width="0.025"></path><!----><path stroke="currentColor" stroke-linecap="round" stroke-linejoin="round" d="M 0,-0.5772542485937369 L -0.23776412907378838,-0.32725424859373686 0,0 0.23776412907378838,-0.32725424859373686 Z" fill="oklch(90.1% 0.076 70.697)" stroke-width="0.025"></path><!----><path stroke="currentColor" stroke-linecap="round" stroke-linejoin="round" d="M 0.9510565162951535,-0.30901699437494745 L 0.7132923872213651,-0.4817627457812106 0.5490014146841359,-0.1783813728906053 0.8602387002944835,-0.029508497187473726 Z" fill="oklch(90.1% 0.076 70.697)" stroke-width="0.025"></path><!----><path stroke="currentColor" stroke-linecap="round" stroke-linejoin="round" d="M 0.8602387002944835,-0.029508497187473726 L 0.5490014146841359,-0.1783813728906053 0.3847104421469067,0.125 0.7694208842938134,0.25 Z" fill="oklch(90.1% 0.076 70.697)" stroke-width="0.025"></path><!----><path stroke="currentColor" stroke-linecap="round" stroke-linejoin="round" d="M 0.7132923872213651,-0.4817627457812106 L 0.47552825814757677,-0.6545084971874737 0.23776412907378838,-0.32725424859373686 0.5490014146841359,-0.1783813728906053 Z" fill="oklch(90.1% 0.076 70.697)" stroke-width="0.025"></path><!----><path stroke="currentColor" stroke-linecap="round" stroke-linejoin="round" d="M 0.5490014146841359,-0.1783813728906053 L 0.23776412907378838,-0.32725424859373686 0,0 0.3847104421469067,0.125 Z" fill="oklch(90.1% 0.076 70.697)" stroke-width="0.025"></path><!----><path stroke="currentColor" stroke-linecap="round" stroke-linejoin="round" d="M 0.5877852522924732,0.8090169943749475 L 0.6786030682931433,0.5295084971874737 0.33930153414657166,0.4670084971874737 0.2938926261462366,0.8090169943749475 Z" fill="oklch(90.1% 0.076 70.697)" stroke-width="0.025"></path><!----><path stroke="currentColor" stroke-linecap="round" stroke-linejoin="round" d="M 0.2938926261462366,0.8090169943749475 L 0.33930153414657166,0.4670084971874737 0,0.4045084971874737 0,0.8090169943749475 Z" fill="oklch(90.1% 0.076 70.697)" stroke-width="0.025"></path><!----><path stroke="currentColor" stroke-linecap="round" stroke-linejoin="round" d="M 0.6786030682931433,0.5295084971874737 L 0.7694208842938134,0.25 0.3847104421469067,0.125 0.33930153414657166,0.4670084971874737 Z" fill="oklch(90.1% 0.076 70.697)" stroke-width="0.025"></path><!----><path stroke="currentColor" stroke-linecap="round" stroke-linejoin="round" d="M 0.33930153414657166,0.4670084971874737 L 0.3847104421469067,0.125 0,0 0,0.4045084971874737 Z" fill="oklch(90.1% 0.076 70.697)" stroke-width="0.025"></path><!----><path stroke="currentColor" stroke-linecap="round" stroke-linejoin="round" d="M -0.5877852522924732,0.8090169943749475 L -0.2938926261462366,0.8090169943749475 -0.33930153414657166,0.4670084971874737 -0.6786030682931433,0.5295084971874737 Z" fill="oklch(90.1% 0.076 70.697)" stroke-width="0.025"></path><!----><path stroke="currentColor" stroke-linecap="round" stroke-linejoin="round" d="M -0.6786030682931433,0.5295084971874737 L -0.33930153414657166,0.4670084971874737 -0.3847104421469067,0.125 -0.7694208842938134,0.25 Z" fill="oklch(90.1% 0.076 70.697)" stroke-width="0.025"></path><!----><path stroke="currentColor" stroke-linecap="round" stroke-linejoin="round" d="M -0.2938926261462366,0.8090169943749475 L 0,0.8090169943749475 0,0.4045084971874737 -0.33930153414657166,0.4670084971874737 Z" fill="oklch(90.1% 0.076 70.697)" stroke-width="0.025"></path><!----><path stroke="currentColor" stroke-linecap="round" stroke-linejoin="round" d="M -0.33930153414657166,0.4670084971874737 L 0,0.4045084971874737 0,0 -0.3847104421469067,0.125 Z" fill="oklch(90.1% 0.076 70.697)" stroke-width="0.025"></path><!----><path stroke="currentColor" stroke-linecap="round" stroke-linejoin="round" d="M -0.9510565162951535,-0.30901699437494745 L -0.8602387002944835,-0.029508497187473726 -0.5490014146841359,-0.1783813728906053 -0.7132923872213651,-0.4817627457812106 Z" fill="oklch(90.1% 0.076 70.697)" stroke-width="0.025"></path><!----><path stroke="currentColor" stroke-linecap="round" stroke-linejoin="round" d="M -0.7132923872213651,-0.4817627457812106 L -0.5490014146841359,-0.1783813728906053 -0.23776412907378838,-0.32725424859373686 -0.47552825814757677,-0.6545084971874737 Z" fill="oklch(90.1% 0.076 70.697)" stroke-width="0.025"></path><!----><path stroke="currentColor" stroke-linecap="round" stroke-linejoin="round" d="M -0.8602387002944835,-0.029508497187473726 L -0.7694208842938134,0.25 -0.3847104421469067,0.125 -0.5490014146841359,-0.1783813728906053 Z" fill="oklch(90.1% 0.076 70.697)" stroke-width="0.025"></path><!----><path stroke="currentColor" stroke-linecap="round" stroke-linejoin="round" d="M -0.5490014146841359,-0.1783813728906053 L -0.3847104421469067,0.125 0,0 -0.23776412907378838,-0.32725424859373686 Z" fill="oklch(90.1% 0.076 70.697)" stroke-width="0.025"></path><!----></g><path stroke="currentColor" stroke-linecap="round" stroke-linejoin="round" d="M 0,-1 L 0.9510565162951535,-0.30901699437494745 0.5877852522924732,0.8090169943749475 -0.5877852522924732,0.8090169943749475 -0.9510565162951535,-0.30901699437494745 Z" stroke-width="0.025" transform="translate(4.616525305762879,-1.1180339887498947) rotate(0)"></path><g transform="translate(4.616525305762879,-1.1180339887498947) rotate(0)"><path stroke="currentColor" stroke-linecap="round" stroke-linejoin="round" d="M 0,-1 L -0.23776412907378838,-0.8272542485937369 0,-0.5772542485937369 0.23776412907378838,-0.8272542485937369 Z" fill="oklch(70.4% 0.04 256.788)" stroke-width="0.025"></path><!----><path stroke="currentColor" stroke-linecap="round" stroke-linejoin="round" d="M 0.23776412907378838,-0.8272542485937369 L 0,-0.5772542485937369 0.23776412907378838,-0.32725424859373686 0.47552825814757677,-0.6545084971874737 Z" fill="oklch(70.4% 0.04 256.788)" stroke-width="0.025"></path><!----><path stroke="currentColor" stroke-linecap="round" stroke-linejoin="round" d="M -0.23776412907378838,-0.8272542485937369 L -0.47552825814757677,-0.6545084971874737 -0.23776412907378838,-0.32725424859373686 0,-0.5772542485937369 Z" fill="oklch(70.4% 0.04 256.788)" stroke-width="0.025"></path><!----><path stroke="currentColor" stroke-linecap="round" stroke-linejoin="round" d="M 0,-0.5772542485937369 L -0.23776412907378838,-0.32725424859373686 0,0 0.23776412907378838,-0.32725424859373686 Z" fill="oklch(70.4% 0.04 256.788)" stroke-width="0.025"></path><!----><path stroke="currentColor" stroke-linecap="round" stroke-linejoin="round" d="M 0.9510565162951535,-0.30901699437494745 L 0.7132923872213651,-0.4817627457812106 0.5490014146841359,-0.1783813728906053 0.8602387002944835,-0.029508497187473726 Z" fill="oklch(70.4% 0.04 256.788)" stroke-width="0.025"></path><!----><path stroke="currentColor" stroke-linecap="round" stroke-linejoin="round" d="M 0.8602387002944835,-0.029508497187473726 L 0.5490014146841359,-0.1783813728906053 0.3847104421469067,0.125 0.7694208842938134,0.25 Z" fill="oklch(70.4% 0.04 256.788)" stroke-width="0.025"></path><!----><path stroke="currentColor" stroke-linecap="round" stroke-linejoin="round" d="M 0.7132923872213651,-0.4817627457812106 L 0.47552825814757677,-0.6545084971874737 0.23776412907378838,-0.32725424859373686 0.5490014146841359,-0.1783813728906053 Z" fill="oklch(70.4% 0.04 256.788)" stroke-width="0.025"></path><!----><path stroke="currentColor" stroke-linecap="round" stroke-linejoin="round" d="M 0.5490014146841359,-0.1783813728906053 L 0.23776412907378838,-0.32725424859373686 0,0 0.3847104421469067,0.125 Z" fill="oklch(70.4% 0.04 256.788)" stroke-width="0.025"></path><!----><path stroke="currentColor" stroke-linecap="round" stroke-linejoin="round" d="M 0.5877852522924732,0.8090169943749475 L 0.6786030682931433,0.5295084971874737 0.33930153414657166,0.4670084971874737 0.2938926261462366,0.8090169943749475 Z" fill="oklch(70.4% 0.04 256.788)" stroke-width="0.025"></path><!----><path stroke="currentColor" stroke-linecap="round" stroke-linejoin="round" d="M 0.2938926261462366,0.8090169943749475 L 0.33930153414657166,0.4670084971874737 0,0.4045084971874737 0,0.8090169943749475 Z" fill="oklch(70.4% 0.04 256.788)" stroke-width="0.025"></path><!----><path stroke="currentColor" stroke-linecap="round" stroke-linejoin="round" d="M 0.6786030682931433,0.5295084971874737 L 0.7694208842938134,0.25 0.3847104421469067,0.125 0.33930153414657166,0.4670084971874737 Z" fill="oklch(70.4% 0.04 256.788)" stroke-width="0.025"></path><!----><path stroke="currentColor" stroke-linecap="round" stroke-linejoin="round" d="M 0.33930153414657166,0.4670084971874737 L 0.3847104421469067,0.125 0,0 0,0.4045084971874737 Z" fill="oklch(70.4% 0.04 256.788)" stroke-width="0.025"></path><!----><path stroke="currentColor" stroke-linecap="round" stroke-linejoin="round" d="M -0.5877852522924732,0.8090169943749475 L -0.2938926261462366,0.8090169943749475 -0.33930153414657166,0.4670084971874737 -0.6786030682931433,0.5295084971874737 Z" fill="oklch(70.4% 0.04 256.788)" stroke-width="0.025"></path><!----><path stroke="currentColor" stroke-linecap="round" stroke-linejoin="round" d="M -0.6786030682931433,0.5295084971874737 L -0.33930153414657166,0.4670084971874737 -0.3847104421469067,0.125 -0.7694208842938134,0.25 Z" fill="oklch(70.4% 0.04 256.788)" stroke-width="0.025"></path><!----><path stroke="currentColor" stroke-linecap="round" stroke-linejoin="round" d="M -0.2938926261462366,0.8090169943749475 L 0,0.8090169943749475 0,0.4045084971874737 -0.33930153414657166,0.4670084971874737 Z" fill="oklch(70.4% 0.04 256.788)" stroke-width="0.025"></path><!----><path stroke="currentColor" stroke-linecap="round" stroke-linejoin="round" d="M -0.33930153414657166,0.4670084971874737 L 0,0.4045084971874737 0,0 -0.3847104421469067,0.125 Z" fill="oklch(70.4% 0.04 256.788)" stroke-width="0.025"></path><!----><path stroke="currentColor" stroke-linecap="round" stroke-linejoin="round" d="M -0.9510565162951535,-0.30901699437494745 L -0.8602387002944835,-0.029508497187473726 -0.5490014146841359,-0.1783813728906053 -0.7132923872213651,-0.4817627457812106 Z" fill="oklch(70.4% 0.04 256.788)" stroke-width="0.025"></path><!----><path stroke="currentColor" stroke-linecap="round" stroke-linejoin="round" d="M -0.7132923872213651,-0.4817627457812106 L -0.5490014146841359,-0.1783813728906053 -0.23776412907378838,-0.32725424859373686 -0.47552825814757677,-0.6545084971874737 Z" fill="oklch(70.4% 0.04 256.788)" stroke-width="0.025"></path><!----><path stroke="currentColor" stroke-linecap="round" stroke-linejoin="round" d="M -0.8602387002944835,-0.029508497187473726 L -0.7694208842938134,0.25 -0.3847104421469067,0.125 -0.5490014146841359,-0.1783813728906053 Z" fill="oklch(70.4% 0.04 256.788)" stroke-width="0.025"></path><!----><path stroke="currentColor" stroke-linecap="round" stroke-linejoin="round" d="M -0.5490014146841359,-0.1783813728906053 L -0.3847104421469067,0.125 0,0 -0.23776412907378838,-0.32725424859373686 Z" fill="oklch(70.4% 0.04 256.788)" stroke-width="0.025"></path><!----></g><path stroke="currentColor" stroke-linecap="round" stroke-linejoin="round" d="M 0,-1 L 0.9510565162951535,-0.30901699437494745 0.5877852522924732,0.8090169943749475 -0.5877852522924732,0.8090169943749475 -0.9510565162951535,-0.30901699437494745 Z" stroke-width="0.025" transform="translate(6.155367074350506,1.1102230246251565e-16) rotate(0)"></path><g transform="translate(6.155367074350506,1.1102230246251565e-16) rotate(0)"><path stroke="currentColor" stroke-linecap="round" stroke-linejoin="round" d="M 0,-1 L -0.23776412907378838,-0.8272542485937369 0,-0.5772542485937369 0.23776412907378838,-0.8272542485937369 Z" fill="oklch(80.9% 0.105 251.813)" stroke-width="0.025"></path><!----><path stroke="currentColor" stroke-linecap="round" stroke-linejoin="round" d="M 0.23776412907378838,-0.8272542485937369 L 0,-0.5772542485937369 0.23776412907378838,-0.32725424859373686 0.47552825814757677,-0.6545084971874737 Z" fill="oklch(80.9% 0.105 251.813)" stroke-width="0.025"></path><!----><path stroke="currentColor" stroke-linecap="round" stroke-linejoin="round" d="M -0.23776412907378838,-0.8272542485937369 L -0.47552825814757677,-0.6545084971874737 -0.23776412907378838,-0.32725424859373686 0,-0.5772542485937369 Z" fill="oklch(80.9% 0.105 251.813)" stroke-width="0.025"></path><!----><path stroke="currentColor" stroke-linecap="round" stroke-linejoin="round" d="M 0,-0.5772542485937369 L -0.23776412907378838,-0.32725424859373686 0,0 0.23776412907378838,-0.32725424859373686 Z" fill="oklch(80.9% 0.105 251.813)" stroke-width="0.025"></path><!----><path stroke="currentColor" stroke-linecap="round" stroke-linejoin="round" d="M 0.9510565162951535,-0.30901699437494745 L 0.7132923872213651,-0.4817627457812106 0.5490014146841359,-0.1783813728906053 0.8602387002944835,-0.029508497187473726 Z" fill="oklch(80.9% 0.105 251.813)" stroke-width="0.025"></path><!----><path stroke="currentColor" stroke-linecap="round" stroke-linejoin="round" d="M 0.8602387002944835,-0.029508497187473726 L 0.5490014146841359,-0.1783813728906053 0.3847104421469067,0.125 0.7694208842938134,0.25 Z" fill="oklch(80.9% 0.105 251.813)" stroke-width="0.025"></path><!----><path stroke="currentColor" stroke-linecap="round" stroke-linejoin="round" d="M 0.7132923872213651,-0.4817627457812106 L 0.47552825814757677,-0.6545084971874737 0.23776412907378838,-0.32725424859373686 0.5490014146841359,-0.1783813728906053 Z" fill="oklch(80.9% 0.105 251.813)" stroke-width="0.025"></path><!----><path stroke="currentColor" stroke-linecap="round" stroke-linejoin="round" d="M 0.5490014146841359,-0.1783813728906053 L 0.23776412907378838,-0.32725424859373686 0,0 0.3847104421469067,0.125 Z" fill="oklch(80.9% 0.105 251.813)" stroke-width="0.025"></path><!----><path stroke="currentColor" stroke-linecap="round" stroke-linejoin="round" d="M 0.5877852522924732,0.8090169943749475 L 0.6786030682931433,0.5295084971874737 0.33930153414657166,0.4670084971874737 0.2938926261462366,0.8090169943749475 Z" fill="oklch(80.9% 0.105 251.813)" stroke-width="0.025"></path><!----><path stroke="currentColor" stroke-linecap="round" stroke-linejoin="round" d="M 0.2938926261462366,0.8090169943749475 L 0.33930153414657166,0.4670084971874737 0,0.4045084971874737 0,0.8090169943749475 Z" fill="oklch(80.9% 0.105 251.813)" stroke-width="0.025"></path><!----><path stroke="currentColor" stroke-linecap="round" stroke-linejoin="round" d="M 0.6786030682931433,0.5295084971874737 L 0.7694208842938134,0.25 0.3847104421469067,0.125 0.33930153414657166,0.4670084971874737 Z" fill="oklch(80.9% 0.105 251.813)" stroke-width="0.025"></path><!----><path stroke="currentColor" stroke-linecap="round" stroke-linejoin="round" d="M 0.33930153414657166,0.4670084971874737 L 0.3847104421469067,0.125 0,0 0,0.4045084971874737 Z" fill="oklch(80.9% 0.105 251.813)" stroke-width="0.025"></path><!----><path stroke="currentColor" stroke-linecap="round" stroke-linejoin="round" d="M -0.5877852522924732,0.8090169943749475 L -0.2938926261462366,0.8090169943749475 -0.33930153414657166,0.4670084971874737 -0.6786030682931433,0.5295084971874737 Z" fill="oklch(80.9% 0.105 251.813)" stroke-width="0.025"></path><!----><path stroke="currentColor" stroke-linecap="round" stroke-linejoin="round" d="M -0.6786030682931433,0.5295084971874737 L -0.33930153414657166,0.4670084971874737 -0.3847104421469067,0.125 -0.7694208842938134,0.25 Z" fill="oklch(80.9% 0.105 251.813)" stroke-width="0.025"></path><!----><path stroke="currentColor" stroke-linecap="round" stroke-linejoin="round" d="M -0.2938926261462366,0.8090169943749475 L 0,0.8090169943749475 0,0.4045084971874737 -0.33930153414657166,0.4670084971874737 Z" fill="oklch(80.9% 0.105 251.813)" stroke-width="0.025"></path><!----><path stroke="currentColor" stroke-linecap="round" stroke-linejoin="round" d="M -0.33930153414657166,0.4670084971874737 L 0,0.4045084971874737 0,0 -0.3847104421469067,0.125 Z" fill="oklch(80.9% 0.105 251.813)" stroke-width="0.025"></path><!----><path stroke="currentColor" stroke-linecap="round" stroke-linejoin="round" d="M -0.9510565162951535,-0.30901699437494745 L -0.8602387002944835,-0.029508497187473726 -0.5490014146841359,-0.1783813728906053 -0.7132923872213651,-0.4817627457812106 Z" fill="oklch(80.9% 0.105 251.813)" stroke-width="0.025"></path><!----><path stroke="currentColor" stroke-linecap="round" stroke-linejoin="round" d="M -0.7132923872213651,-0.4817627457812106 L -0.5490014146841359,-0.1783813728906053 -0.23776412907378838,-0.32725424859373686 -0.47552825814757677,-0.6545084971874737 Z" fill="oklch(80.9% 0.105 251.813)" stroke-width="0.025"></path><!----><path stroke="currentColor" stroke-linecap="round" stroke-linejoin="round" d="M -0.8602387002944835,-0.029508497187473726 L -0.7694208842938134,0.25 -0.3847104421469067,0.125 -0.5490014146841359,-0.1783813728906053 Z" fill="oklch(80.9% 0.105 251.813)" stroke-width="0.025"></path><!----><path stroke="currentColor" stroke-linecap="round" stroke-linejoin="round" d="M -0.5490014146841359,-0.1783813728906053 L -0.3847104421469067,0.125 0,0 -0.23776412907378838,-0.32725424859373686 Z" fill="oklch(80.9% 0.105 251.813)" stroke-width="0.025"></path><!----></g><path stroke="currentColor" stroke-linecap="round" stroke-linejoin="round" d="M 0,-1 L 0.9510565162951535,-0.30901699437494745 0.5877852522924732,0.8090169943749475 -0.5877852522924732,0.8090169943749475 -0.9510565162951535,-0.30901699437494745 Z" stroke-width="0.025" transform="translate(3.665468789467726,1.8090169943749472) rotate(0)"></path><g transform="translate(3.665468789467726,1.8090169943749472) rotate(0)"><path stroke="currentColor" stroke-linecap="round" stroke-linejoin="round" d="M 0,-1 L -0.23776412907378838,-0.8272542485937369 0,-0.5772542485937369 0.23776412907378838,-0.8272542485937369 Z" fill="oklch(64.5% 0.246 16.439)" stroke-width="0.025"></path><!----><path stroke="currentColor" stroke-linecap="round" stroke-linejoin="round" d="M 0.23776412907378838,-0.8272542485937369 L 0,-0.5772542485937369 0.23776412907378838,-0.32725424859373686 0.47552825814757677,-0.6545084971874737 Z" fill="oklch(64.5% 0.246 16.439)" stroke-width="0.025"></path><!----><path stroke="currentColor" stroke-linecap="round" stroke-linejoin="round" d="M -0.23776412907378838,-0.8272542485937369 L -0.47552825814757677,-0.6545084971874737 -0.23776412907378838,-0.32725424859373686 0,-0.5772542485937369 Z" fill="oklch(64.5% 0.246 16.439)" stroke-width="0.025"></path><!----><path stroke="currentColor" stroke-linecap="round" stroke-linejoin="round" d="M 0,-0.5772542485937369 L -0.23776412907378838,-0.32725424859373686 0,0 0.23776412907378838,-0.32725424859373686 Z" fill="oklch(64.5% 0.246 16.439)" stroke-width="0.025"></path><!----><path stroke="currentColor" stroke-linecap="round" stroke-linejoin="round" d="M 0.9510565162951535,-0.30901699437494745 L 0.7132923872213651,-0.4817627457812106 0.5490014146841359,-0.1783813728906053 0.8602387002944835,-0.029508497187473726 Z" fill="oklch(64.5% 0.246 16.439)" stroke-width="0.025"></path><!----><path stroke="currentColor" stroke-linecap="round" stroke-linejoin="round" d="M 0.8602387002944835,-0.029508497187473726 L 0.5490014146841359,-0.1783813728906053 0.3847104421469067,0.125 0.7694208842938134,0.25 Z" fill="oklch(64.5% 0.246 16.439)" stroke-width="0.025"></path><!----><path stroke="currentColor" stroke-linecap="round" stroke-linejoin="round" d="M 0.7132923872213651,-0.4817627457812106 L 0.47552825814757677,-0.6545084971874737 0.23776412907378838,-0.32725424859373686 0.5490014146841359,-0.1783813728906053 Z" fill="oklch(64.5% 0.246 16.439)" stroke-width="0.025"></path><!----><path stroke="currentColor" stroke-linecap="round" stroke-linejoin="round" d="M 0.5490014146841359,-0.1783813728906053 L 0.23776412907378838,-0.32725424859373686 0,0 0.3847104421469067,0.125 Z" fill="oklch(64.5% 0.246 16.439)" stroke-width="0.025"></path><!----><path stroke="currentColor" stroke-linecap="round" stroke-linejoin="round" d="M 0.5877852522924732,0.8090169943749475 L 0.6786030682931433,0.5295084971874737 0.33930153414657166,0.4670084971874737 0.2938926261462366,0.8090169943749475 Z" fill="oklch(64.5% 0.246 16.439)" stroke-width="0.025"></path><!----><path stroke="currentColor" stroke-linecap="round" stroke-linejoin="round" d="M 0.2938926261462366,0.8090169943749475 L 0.33930153414657166,0.4670084971874737 0,0.4045084971874737 0,0.8090169943749475 Z" fill="oklch(64.5% 0.246 16.439)" stroke-width="0.025"></path><!----><path stroke="currentColor" stroke-linecap="round" stroke-linejoin="round" d="M 0.6786030682931433,0.5295084971874737 L 0.7694208842938134,0.25 0.3847104421469067,0.125 0.33930153414657166,0.4670084971874737 Z" fill="oklch(64.5% 0.246 16.439)" stroke-width="0.025"></path><!----><path stroke="currentColor" stroke-linecap="round" stroke-linejoin="round" d="M 0.33930153414657166,0.4670084971874737 L 0.3847104421469067,0.125 0,0 0,0.4045084971874737 Z" fill="oklch(64.5% 0.246 16.439)" stroke-width="0.025"></path><!----><path stroke="currentColor" stroke-linecap="round" stroke-linejoin="round" d="M -0.5877852522924732,0.8090169943749475 L -0.2938926261462366,0.8090169943749475 -0.33930153414657166,0.4670084971874737 -0.6786030682931433,0.5295084971874737 Z" fill="oklch(64.5% 0.246 16.439)" stroke-width="0.025"></path><!----><path stroke="currentColor" stroke-linecap="round" stroke-linejoin="round" d="M -0.6786030682931433,0.5295084971874737 L -0.33930153414657166,0.4670084971874737 -0.3847104421469067,0.125 -0.7694208842938134,0.25 Z" fill="oklch(64.5% 0.246 16.439)" stroke-width="0.025"></path><!----><path stroke="currentColor" stroke-linecap="round" stroke-linejoin="round" d="M -0.2938926261462366,0.8090169943749475 L 0,0.8090169943749475 0,0.4045084971874737 -0.33930153414657166,0.4670084971874737 Z" fill="oklch(64.5% 0.246 16.439)" stroke-width="0.025"></path><!----><path stroke="currentColor" stroke-linecap="round" stroke-linejoin="round" d="M -0.33930153414657166,0.4670084971874737 L 0,0.4045084971874737 0,0 -0.3847104421469067,0.125 Z" fill="oklch(64.5% 0.246 16.439)" stroke-width="0.025"></path><!----><path stroke="currentColor" stroke-linecap="round" stroke-linejoin="round" d="M -0.9510565162951535,-0.30901699437494745 L -0.8602387002944835,-0.029508497187473726 -0.5490014146841359,-0.1783813728906053 -0.7132923872213651,-0.4817627457812106 Z" fill="oklch(64.5% 0.246 16.439)" stroke-width="0.025"></path><!----><path stroke="currentColor" stroke-linecap="round" stroke-linejoin="round" d="M -0.7132923872213651,-0.4817627457812106 L -0.5490014146841359,-0.1783813728906053 -0.23776412907378838,-0.32725424859373686 -0.47552825814757677,-0.6545084971874737 Z" fill="oklch(64.5% 0.246 16.439)" stroke-width="0.025"></path><!----><path stroke="currentColor" stroke-linecap="round" stroke-linejoin="round" d="M -0.8602387002944835,-0.029508497187473726 L -0.7694208842938134,0.25 -0.3847104421469067,0.125 -0.5490014146841359,-0.1783813728906053 Z" fill="oklch(64.5% 0.246 16.439)" stroke-width="0.025"></path><!----><path stroke="currentColor" stroke-linecap="round" stroke-linejoin="round" d="M -0.5490014146841359,-0.1783813728906053 L -0.3847104421469067,0.125 0,0 -0.23776412907378838,-0.32725424859373686 Z" fill="oklch(64.5% 0.246 16.439)" stroke-width="0.025"></path><!----></g><path stroke="currentColor" stroke-linecap="round" stroke-linejoin="round" d="M 0,-1 L 0.9510565162951535,-0.30901699437494745 0.5877852522924732,0.8090169943749475 -0.5877852522924732,0.8090169943749475 -0.9510565162951535,-0.30901699437494745 Z" stroke-width="0.025" transform="translate(5.567581822058033,1.8090169943749472) rotate(0)"></path><g transform="translate(5.567581822058033,1.8090169943749472) rotate(0)"><path stroke="currentColor" stroke-linecap="round" stroke-linejoin="round" d="M 0,-1 L -0.23776412907378838,-0.8272542485937369 0,-0.5772542485937369 0.23776412907378838,-0.8272542485937369 Z" fill="oklch(59.6% 0.145 163.225)" stroke-width="0.025"></path><!----><path stroke="currentColor" stroke-linecap="round" stroke-linejoin="round" d="M 0.23776412907378838,-0.8272542485937369 L 0,-0.5772542485937369 0.23776412907378838,-0.32725424859373686 0.47552825814757677,-0.6545084971874737 Z" fill="oklch(59.6% 0.145 163.225)" stroke-width="0.025"></path><!----><path stroke="currentColor" stroke-linecap="round" stroke-linejoin="round" d="M -0.23776412907378838,-0.8272542485937369 L -0.47552825814757677,-0.6545084971874737 -0.23776412907378838,-0.32725424859373686 0,-0.5772542485937369 Z" fill="oklch(59.6% 0.145 163.225)" stroke-width="0.025"></path><!----><path stroke="currentColor" stroke-linecap="round" stroke-linejoin="round" d="M 0,-0.5772542485937369 L -0.23776412907378838,-0.32725424859373686 0,0 0.23776412907378838,-0.32725424859373686 Z" fill="oklch(59.6% 0.145 163.225)" stroke-width="0.025"></path><!----><path stroke="currentColor" stroke-linecap="round" stroke-linejoin="round" d="M 0.9510565162951535,-0.30901699437494745 L 0.7132923872213651,-0.4817627457812106 0.5490014146841359,-0.1783813728906053 0.8602387002944835,-0.029508497187473726 Z" fill="oklch(59.6% 0.145 163.225)" stroke-width="0.025"></path><!----><path stroke="currentColor" stroke-linecap="round" stroke-linejoin="round" d="M 0.8602387002944835,-0.029508497187473726 L 0.5490014146841359,-0.1783813728906053 0.3847104421469067,0.125 0.7694208842938134,0.25 Z" fill="oklch(59.6% 0.145 163.225)" stroke-width="0.025"></path><!----><path stroke="currentColor" stroke-linecap="round" stroke-linejoin="round" d="M 0.7132923872213651,-0.4817627457812106 L 0.47552825814757677,-0.6545084971874737 0.23776412907378838,-0.32725424859373686 0.5490014146841359,-0.1783813728906053 Z" fill="oklch(59.6% 0.145 163.225)" stroke-width="0.025"></path><!----><path stroke="currentColor" stroke-linecap="round" stroke-linejoin="round" d="M 0.5490014146841359,-0.1783813728906053 L 0.23776412907378838,-0.32725424859373686 0,0 0.3847104421469067,0.125 Z" fill="oklch(59.6% 0.145 163.225)" stroke-width="0.025"></path><!----><path stroke="currentColor" stroke-linecap="round" stroke-linejoin="round" d="M 0.5877852522924732,0.8090169943749475 L 0.6786030682931433,0.5295084971874737 0.33930153414657166,0.4670084971874737 0.2938926261462366,0.8090169943749475 Z" fill="oklch(59.6% 0.145 163.225)" stroke-width="0.025"></path><!----><path stroke="currentColor" stroke-linecap="round" stroke-linejoin="round" d="M 0.2938926261462366,0.8090169943749475 L 0.33930153414657166,0.4670084971874737 0,0.4045084971874737 0,0.8090169943749475 Z" fill="oklch(59.6% 0.145 163.225)" stroke-width="0.025"></path><!----><path stroke="currentColor" stroke-linecap="round" stroke-linejoin="round" d="M 0.6786030682931433,0.5295084971874737 L 0.7694208842938134,0.25 0.3847104421469067,0.125 0.33930153414657166,0.4670084971874737 Z" fill="oklch(59.6% 0.145 163.225)" stroke-width="0.025"></path><!----><path stroke="currentColor" stroke-linecap="round" stroke-linejoin="round" d="M 0.33930153414657166,0.4670084971874737 L 0.3847104421469067,0.125 0,0 0,0.4045084971874737 Z" fill="oklch(59.6% 0.145 163.225)" stroke-width="0.025"></path><!----><path stroke="currentColor" stroke-linecap="round" stroke-linejoin="round" d="M -0.5877852522924732,0.8090169943749475 L -0.2938926261462366,0.8090169943749475 -0.33930153414657166,0.4670084971874737 -0.6786030682931433,0.5295084971874737 Z" fill="oklch(59.6% 0.145 163.225)" stroke-width="0.025"></path><!----><path stroke="currentColor" stroke-linecap="round" stroke-linejoin="round" d="M -0.6786030682931433,0.5295084971874737 L -0.33930153414657166,0.4670084971874737 -0.3847104421469067,0.125 -0.7694208842938134,0.25 Z" fill="oklch(59.6% 0.145 163.225)" stroke-width="0.025"></path><!----><path stroke="currentColor" stroke-linecap="round" stroke-linejoin="round" d="M -0.2938926261462366,0.8090169943749475 L 0,0.8090169943749475 0,0.4045084971874737 -0.33930153414657166,0.4670084971874737 Z" fill="oklch(59.6% 0.145 163.225)" stroke-width="0.025"></path><!----><path stroke="currentColor" stroke-linecap="round" stroke-linejoin="round" d="M -0.33930153414657166,0.4670084971874737 L 0,0.4045084971874737 0,0 -0.3847104421469067,0.125 Z" fill="oklch(59.6% 0.145 163.225)" stroke-width="0.025"></path><!----><path stroke="currentColor" stroke-linecap="round" stroke-linejoin="round" d="M -0.9510565162951535,-0.30901699437494745 L -0.8602387002944835,-0.029508497187473726 -0.5490014146841359,-0.1783813728906053 -0.7132923872213651,-0.4817627457812106 Z" fill="oklch(59.6% 0.145 163.225)" stroke-width="0.025"></path><!----><path stroke="currentColor" stroke-linecap="round" stroke-linejoin="round" d="M -0.7132923872213651,-0.4817627457812106 L -0.5490014146841359,-0.1783813728906053 -0.23776412907378838,-0.32725424859373686 -0.47552825814757677,-0.6545084971874737 Z" fill="oklch(59.6% 0.145 163.225)" stroke-width="0.025"></path><!----><path stroke="currentColor" stroke-linecap="round" stroke-linejoin="round" d="M -0.8602387002944835,-0.029508497187473726 L -0.7694208842938134,0.25 -0.3847104421469067,0.125 -0.5490014146841359,-0.1783813728906053 Z" fill="oklch(59.6% 0.145 163.225)" stroke-width="0.025"></path><!----><path stroke="currentColor" stroke-linecap="round" stroke-linejoin="round" d="M -0.5490014146841359,-0.1783813728906053 L -0.3847104421469067,0.125 0,0 -0.23776412907378838,-0.32725424859373686 Z" fill="oklch(59.6% 0.145 163.225)" stroke-width="0.025"></path><!----></g></g></svg>